Coordinates
version=1
nRows=43
nColumns=12
inDegrees=yes

Units are S.I. units (second, meters, Newtons, ...)
Angles are in degrees

endheader
time	SC_y	SC_z	SC_x	AC_y	AC_z	AC_x	GH_y	GH_z	GH_yy	EL_x	PS_y
       0.0              -43.46           3.03          69.08          39.05         -12.51          14.44         -133.7          81.85         -138.2          92.17          76.64
   0.03725              -43.46          3.034          69.08          39.05         -12.51          14.43         -133.7          81.84         -138.2          92.17          76.64
    0.0745              -43.45          3.038          69.08          39.05         -12.51          14.43         -133.7          81.83         -138.2          92.16          76.65
    0.1117              -43.45          3.043          69.08          39.06         -12.51          14.42         -133.7          81.81         -138.2          92.16          76.66
     0.149              -43.45          3.047          69.08          39.06         -12.51          14.42         -133.6           81.8         -138.2          92.15          76.67
    0.1862              -43.44          3.052          69.09          39.06         -12.51          14.41         -133.6          81.78         -138.2          92.15          76.68
    0.2235              -43.44          3.058          69.09          39.06         -12.51           14.4         -133.6          81.77         -138.1          92.14          76.69
    0.2607              -43.44          3.064          69.09          39.06         -12.51           14.4         -133.6          81.75         -138.1          92.13           76.7
     0.298              -43.43           3.07          69.09          39.06         -12.51          14.39         -133.6          81.73         -138.1          92.13          76.71
    0.3352              -43.43          3.076           69.1          39.06         -12.51          14.38         -133.5          81.71         -138.1          92.12          76.72
    0.3725              -43.42          3.083           69.1          39.07         -12.52          14.38         -133.5          81.69         -138.0          92.11          76.73
    0.4097              -43.41          3.091           69.1          39.07         -12.52          14.37         -133.5          81.67         -138.0           92.1          76.75
     0.447              -43.41          3.099          69.11          39.07         -12.52          14.36         -133.5          81.64         -138.0          92.09          76.76
    0.4842               -43.4          3.108          69.11          39.07         -12.52          14.35         -133.4          81.61         -138.0          92.08          76.78
    0.5215              -43.39          3.118          69.11          39.07         -12.52          14.34         -133.4          81.58         -137.9          92.07           76.8
    0.5587              -43.39          3.128          69.12          39.08         -12.52          14.33         -133.4          81.55         -137.9          92.06          76.82
     0.596              -43.38           3.14          69.12          39.08         -12.52          14.32         -133.3          81.52         -137.9          92.05          76.84
    0.6332              -43.37          3.152          69.13          39.08         -12.52           14.3         -133.3          81.48         -137.8          92.03          76.86
    0.6705              -43.36          3.166          69.13          39.09         -12.53          14.29         -133.2          81.44         -137.8          92.02          76.88
    0.7077              -43.35           3.18          69.14          39.09         -12.53          14.27         -133.2          81.39         -137.7           92.0          76.91
     0.745              -43.34          3.197          69.15          39.09         -12.53          14.25         -133.1          81.34         -137.7          91.98          76.94
    0.7822              -43.32          3.214          69.15           39.1         -12.53          14.23         -133.1          81.29         -137.6          91.96          76.97
    0.8195              -43.31          3.234          69.16           39.1         -12.54          14.21         -133.0          81.22         -137.5          91.94          77.01
    0.8567              -43.29          3.256          69.17          39.11         -12.54          14.19         -132.9          81.16         -137.5          91.92          77.05
     0.894              -43.27           3.28          69.18          39.12         -12.54          14.16         -132.8          81.08         -137.4          91.89          77.09
    0.9312              -43.25          3.308          69.19          39.12         -12.54          14.13         -132.7           81.0         -137.3          91.86          77.14
    0.9685              -43.23          3.338          69.21          39.13         -12.55           14.1         -132.6          80.91         -137.2          91.83           77.2
     1.006               -43.2          3.372          69.22          39.14         -12.55          14.06         -132.5           80.8         -137.1          91.79          77.26
     1.043              -43.17          3.411          69.24          39.15         -12.56          14.02         -132.4          80.68         -136.9          91.75          77.33
      1.08              -43.14          3.455          69.25          39.16         -12.56          13.97         -132.2          80.55         -136.8           91.7          77.41
     1.117               -43.1          3.505          69.28          39.17         -12.57          13.92         -132.0          80.39         -136.6          91.64           77.5
     1.155              -43.06          3.562           69.3          39.19         -12.58          13.85         -131.8          80.22         -136.4          91.58          77.61
     1.192              -43.01          3.628          69.33           39.2         -12.59          13.78         -131.6          80.01         -136.2           91.5          77.73
     1.229              -42.95          3.705          69.36          39.22          -12.6          13.69         -131.3          79.77         -136.0          91.42          77.87
     1.266              -42.88          3.796           69.4          39.24         -12.61           13.6         -131.0           79.5         -135.7          91.32          78.03
     1.304               -42.8          3.902          69.44          39.27         -12.62          13.48         -130.7          79.17         -135.3           91.2          78.23
     1.341              -42.71          4.028          69.49           39.3         -12.64          13.34         -130.2          78.78         -134.9          91.06          78.46
     1.378               -42.6           4.18          69.56          39.34         -12.66          13.17         -129.7          78.31         -134.4          90.89          78.74
     1.415              -42.46          4.363          69.63          39.39         -12.68          12.97         -129.0          77.75         -133.8          90.68          79.07
     1.453              -42.29          4.587          69.72          39.44         -12.71          12.73         -128.3          77.06         -133.0          90.43          79.48
      1.49              -42.08          4.863          69.84          39.51         -12.75          12.43         -127.3          76.21         -132.1          90.12          79.98
     1.527              -41.82          5.207          69.98           39.6         -12.79          12.05         -126.1          75.15         -130.9          89.74          80.61
     1.564               -41.5          5.641          70.16          39.71         -12.85          11.57         -124.6          73.81         -129.5          89.25           81.4
